<svg xmlns="http://www.w3.org/2000/svg" viewBox="0 0 600 400">
  <!-- Black background -->
  <rect width="600" height="400" fill="black" />
  
  <!-- Nodes and Connections for Distributed Systems -->
  
  <!-- Central Node -->
  <circle cx="300" cy="200" r="25" fill="none" stroke="white" stroke-width="3" />
  <circle cx="300" cy="200" r="15" fill="white" />
  
  <!-- Upper Left Node -->
  <circle cx="120" cy="100" r="20" fill="none" stroke="white" stroke-width="3" />
  <circle cx="120" cy="100" r="12" fill="white" />
  
  <!-- Upper Right Node -->
  <circle cx="480" cy="120" r="22" fill="none" stroke="white" stroke-width="3" />
  <circle cx="480" cy="120" r="13" fill="white" />
  
  <!-- Lower Left Node -->
  <circle cx="140" cy="320" r="18" fill="none" stroke="white" stroke-width="3" />
  <circle cx="140" cy="320" r="10" fill="white" />
  
  <!-- Lower Right Node -->
  <circle cx="450" cy="280" r="21" fill="none" stroke="white" stroke-width="3" />
  <circle cx="450" cy="280" r="12" fill="white" />
  
  <!-- Middle Left Node -->
  <circle cx="150" cy="200" r="19" fill="none" stroke="white" stroke-width="3" />
  <circle cx="150" cy="200" r="11" fill="white" />
  
  <!-- Middle Right Node -->
  <circle cx="460" cy="200" r="19" fill="none" stroke="white" stroke-width="3" />
  <circle cx="460" cy="200" r="11" fill="white" />
  
  <!-- Upper Node -->
  <circle cx="300" cy="80" r="20" fill="none" stroke="white" stroke-width="3" />
  <circle cx="300" cy="80" r="12" fill="white" />
  
  <!-- Lower Node -->
  <circle cx="300" cy="320" r="20" fill="none" stroke="white" stroke-width="3" />
  <circle cx="300" cy="320" r="12" fill="white" />
  
  <!-- Connections between nodes - dashed lines -->
  <line x1="300" y1="200" x2="120" y2="100" stroke="white" stroke-width="2" stroke-dasharray="5,5" />
  <line x1="300" y1="200" x2="480" y2="120" stroke="white" stroke-width="2" stroke-dasharray="5,5" />
  <line x1="300" y1="200" x2="140" y2="320" stroke="white" stroke-width="2" stroke-dasharray="5,5" />
  <line x1="300" y1="200" x2="450" y2="280" stroke="white" stroke-width="2" stroke-dasharray="5,5" />
  <line x1="300" y1="200" x2="150" y2="200" stroke="white" stroke-width="2" stroke-dasharray="5,5" />
  <line x1="300" y1="200" x2="460" y2="200" stroke="white" stroke-width="2" stroke-dasharray="5,5" />
  <line x1="300" y1="200" x2="300" y2="80" stroke="white" stroke-width="2" stroke-dasharray="5,5" />
  <line x1="300" y1="200" x2="300" y2="320" stroke="white" stroke-width="2" stroke-dasharray="5,5" />
  
  <!-- Secondary connections for more distributed feel -->
  <line x1="120" y1="100" x2="300" y2="80" stroke="white" stroke-width="1.5" stroke-dasharray="4,4" />
  <line x1="480" y1="120" x2="300" y2="80" stroke="white" stroke-width="1.5" stroke-dasharray="4,4" />
  <line x1="140" y1="320" x2="300" y2="320" stroke="white" stroke-width="1.5" stroke-dasharray="4,4" />
  <line x1="450" y1="280" x2="300" y2="320" stroke="white" stroke-width="1.5" stroke-dasharray="4,4" />
  <line x1="150" y1="200" x2="140" y2="320" stroke="white" stroke-width="1.5" stroke-dasharray="4,4" />
  <line x1="460" y1="200" x2="450" y2="280" stroke="white" stroke-width="1.5" stroke-dasharray="4,4" />
  <line x1="120" y1="100" x2="150" y2="200" stroke="white" stroke-width="1.5" stroke-dasharray="4,4" />
  <line x1="480" y1="120" x2="460" y2="200" stroke="white" stroke-width="1.5" stroke-dasharray="4,4" />
  
  <!-- Data Packets Moving Along Connections (small circles) -->
  <circle cx="210" cy="150" r="4" fill="white">
    <animate attributeName="cx" from="300" to="120" dur="4s" repeatCount="indefinite" />
    <animate attributeName="cy" from="200" to="100" dur="4s" repeatCount="indefinite" />
  </circle>
  
  <circle cx="390" cy="160" r="4" fill="white">
    <animate attributeName="cx" from="300" to="480" dur="3.5s" repeatCount="indefinite" />
    <animate attributeName="cy" from="200" to="120" dur="3.5s" repeatCount="indefinite" />
  </circle>
  
  <circle cx="220" cy="260" r="4" fill="white">
    <animate attributeName="cx" from="300" to="140" dur="4.5s" repeatCount="indefinite" />
    <animate attributeName="cy" from="200" to="320" dur="4.5s" repeatCount="indefinite" />
  </circle>
  
  <circle cx="375" cy="240" r="4" fill="white">
    <animate attributeName="cx" from="300" to="450" dur="3.8s" repeatCount="indefinite" />
    <animate attributeName="cy" from="200" to="280" dur="3.8s" repeatCount="indefinite" />
  </circle>
  
  <circle cx="225" cy="200" r="4" fill="white">
    <animate attributeName="cx" from="300" to="150" dur="3s" repeatCount="indefinite" />
    <animate attributeName="cy" from="200" to="200" dur="3s" repeatCount="indefinite" />
  </circle>
  
  <circle cx="380" cy="200" r="4" fill="white">
    <animate attributeName="cx" from="300" to="460" dur="3.2s" repeatCount="indefinite" />
    <animate attributeName="cy" from="200" to="200" dur="3.2s" repeatCount="indefinite" />
  </circle>
  
  <circle cx="300" cy="140" r="4" fill="white">
    <animate attributeName="cx" from="300" to="300" dur="2.5s" repeatCount="indefinite" />
    <animate attributeName="cy" from="200" to="80" dur="2.5s" repeatCount="indefinite" />
  </circle>
  
  <circle cx="300" cy="260" r="4" fill="white">
    <animate attributeName="cx" from="300" to="300" dur="2.8s" repeatCount="indefinite" />
    <animate attributeName="cy" from="200" to="320" dur="2.8s" repeatCount="indefinite" />
  </circle>
</svg>