<svg xmlns="http://www.w3.org/2000/svg" viewBox="0 0 500 300">
  <!-- Black background -->
  <rect width="500" height="300" fill="black" />
  
  <!-- Victorian Weighing Scale - Slightly Tilted -->
  
  <!-- Ornate Base -->
  <path d="M215,270 C215,270 220,280 250,280 C280,280 285,270 285,270 L290,240 L210,240 Z" fill="white" />
  <path d="M225,240 L275,240 L275,230 C275,225 265,220 250,220 C235,220 225,225 225,230 Z" fill="white" />
  
  <!-- Decorative Elements on Base -->
  <rect x="235" y="255" width="30" height="5" rx="2" fill="black" />
  <rect x="230" y="265" width="40" height="5" rx="2" fill="black" />
  
  <!-- Center Column -->
  <path d="M245,220 L255,220 L255,160 L245,160 Z" fill="white" />
  
  <!-- Ornate Top Piece -->
  <path d="M240,160 L260,160 L260,150 L240,150 Z" fill="white" />
  <path d="M235,150 L265,150 L260,140 L240,140 Z" fill="white" />
  
  <!-- Balance Beam - Tilted -->
  <g transform="rotate(-8, 250, 140)">
    <rect x="130" y="138" width="240" height="4" fill="white" />
    
    <!-- Decorative End Caps -->
    <circle cx="130" cy="140" r="5" fill="white" />
    <circle cx="370" cy="140" r="5" fill="white" />
    
    <!-- Left Scale Pan - Lower -->
    <line x1="130" y1="140" x2="130" y2="190" stroke="white" stroke-width="2" />
    <path d="M100,190 A30,10 0 0,0 160,190 A30,10 0 0,0 100,190 Z" fill="none" stroke="white" stroke-width="2" />
    <path d="M105,190 A25,7 0 0,0 155,190 A25,7 0 0,0 105,190 Z" fill="white" />
    
    <!-- Right Scale Pan - Higher -->
    <line x1="370" y1="140" x2="370" y2="170" stroke="white" stroke-width="2" />
    <path d="M340,170 A30,10 0 0,0 400,170 A30,10 0 0,0 340,170 Z" fill="none" stroke="white" stroke-width="2" />
    <path d="M345,170 A25,7 0 0,0 395,170 A25,7 0 0,0 345,170 Z" fill="white" />
  </g>
  
  <!-- Ornate Details for Victorian Style -->
  <circle cx="250" cy="140" r="4" fill="white" />
  <path d="M248,136 L252,136 L252,132 L248,132 Z" fill="white" />
  
  <!-- Decorative Chains -->
  <path d="M130,140 C125,145 125,150 130,155 C135,160 135,165 130,170 C125,175 125,180 130,185 C132,187 130,190 130,190" stroke="white" stroke-width="1" fill="none" />
  <path d="M370,140 C365,145 365,150 370,155 C375,160 375,165 370,170 C368,172 370,170 370,170" stroke="white" stroke-width="1" fill="none" />
</svg>